<svg xmlns="http://www.w3.org/2000/svg" xmlns:xlink="http://www.w3.org/1999/xlink" width="100" height="100" viewBox="0 0 100 100" version="1.1"><g id="surface1"><path style=" stroke:none;fill-rule:nonzero;fill:rgb(0%,0%,0%);fill-opacity:1;" d="M 50 22.601562 L 50 24.800781 L 51.398438 24.800781 C 52.660156 24.800781 52.800781 24.761719 52.800781 24.398438 C 52.800781 24.058594 52.660156 24 51.898438 24 C 51.078125 24 51 23.960938 51 23.5 C 51 23.039062 51.078125 23 51.800781 23 C 52.460938 23 52.601562 22.941406 52.601562 22.601562 C 52.601562 22.261719 52.460938 22.199219 51.800781 22.199219 C 51.078125 22.199219 51 22.160156 51 21.679688 C 51 21.179688 51.039062 21.160156 51.898438 21.238281 C 52.640625 21.28125 52.800781 21.238281 52.800781 20.980469 C 52.800781 20.578125 52.238281 20.398438 50.960938 20.398438 L 50 20.398438 Z M 46.601562 21.480469 C 46.601562 21.941406 46.660156 22.898438 46.71875 23.578125 C 46.839844 24.699219 46.898438 24.800781 47.320312 24.800781 C 47.800781 24.800781 47.800781 24.78125 47.699219 23.339844 C 47.5 20.898438 47.421875 20.601562 47 20.601562 C 46.660156 20.601562 46.601562 20.738281 46.601562 21.480469 Z M 41.640625 21.261719 C 40.820312 21.421875 40.621094 21.519531 40.679688 21.78125 C 40.738281 21.960938 40.921875 22.878906 41.121094 23.839844 C 41.441406 25.480469 41.480469 25.601562 41.941406 25.601562 C 42.378906 25.601562 42.421875 25.539062 42.300781 24.980469 C 42.078125 24.039062 42.558594 23.878906 43.320312 24.621094 C 43.800781 25.078125 44.058594 25.199219 44.378906 25.101562 L 44.820312 24.960938 L 44.320312 24.378906 C 43.859375 23.839844 43.839844 23.761719 44.121094 23.21875 C 44.320312 22.820312 44.359375 22.5 44.21875 22.160156 C 43.859375 21.199219 43.179688 20.960938 41.640625 21.261719 Z M 43.28125 22.320312 C 43.441406 22.738281 43.261719 22.980469 42.640625 23.21875 C 42.058594 23.441406 41.800781 23.199219 41.800781 22.441406 C 41.800781 22.078125 41.898438 22 42.480469 22 C 42.921875 22 43.199219 22.121094 43.28125 22.320312 Z M 57.761719 23.339844 C 57.378906 24.761719 57.300781 25.339844 57.480469 25.441406 C 57.878906 25.71875 58.160156 25.601562 58.28125 25.121094 C 58.378906 24.679688 58.5 24.640625 59.421875 24.660156 C 60.261719 24.699219 60.5 24.621094 60.820312 24.21875 C 61.640625 23.199219 61.121094 22.019531 59.660156 21.621094 C 58.300781 21.238281 58.300781 21.238281 57.761719 23.339844 Z M 60 22.699219 C 60.441406 23.21875 60.160156 23.699219 59.398438 23.699219 C 58.699219 23.699219 58.601562 23.519531 58.898438 22.640625 C 59.019531 22.300781 59.699219 22.339844 60 22.699219 Z M 36.800781 22.640625 C 36.199219 22.878906 35.660156 23.101562 35.621094 23.121094 C 35.558594 23.179688 36.179688 25.078125 36.820312 26.71875 L 36.980469 27.160156 L 38.238281 26.699219 C 38.941406 26.460938 39.5 26.140625 39.480469 26.019531 C 39.460938 25.898438 39.441406 25.71875 39.441406 25.601562 C 39.421875 25.5 39 25.558594 38.5 25.761719 C 37.539062 26.101562 37.480469 26.101562 37.359375 25.519531 C 37.320312 25.238281 37.480469 25.078125 38 24.898438 C 38.378906 24.78125 38.699219 24.539062 38.699219 24.378906 C 38.699219 24.101562 38.441406 24.078125 37.398438 24.21875 C 37.019531 24.28125 36.878906 24.199219 36.839844 23.878906 C 36.800781 23.558594 36.941406 23.421875 37.601562 23.21875 C 38.21875 23.039062 38.398438 22.898438 38.320312 22.679688 C 38.261719 22.5 38.199219 22.320312 38.199219 22.28125 C 38.199219 22.140625 37.941406 22.199219 36.800781 22.640625 Z M 65 22.5 C 64.539062 22.761719 64.539062 22.78125 64.898438 22.820312 C 65.121094 22.839844 65.398438 22.839844 65.519531 22.820312 C 65.660156 22.800781 65.800781 22.921875 65.878906 23.101562 C 66.039062 23.539062 66.398438 23.480469 66.398438 23 C 66.398438 22.800781 66.21875 22.519531 66.019531 22.398438 C 65.539062 22.160156 65.621094 22.160156 65 22.5 Z M 63.320312 24.980469 C 61.800781 26.519531 61.761719 26.558594 62.199219 26.800781 C 62.558594 27 62.699219 26.980469 62.941406 26.738281 C 63.398438 26.300781 64.800781 26.878906 64.800781 27.5 C 64.800781 27.921875 65.140625 28.199219 65.621094 28.199219 C 65.71875 28.199219 65.800781 27.179688 65.800781 25.921875 C 65.800781 24.019531 65.738281 23.621094 65.480469 23.519531 C 64.980469 23.320312 64.960938 23.339844 63.320312 24.980469 Z M 64.921875 25.339844 C 64.878906 25.660156 64.820312 25.980469 64.820312 26.058594 C 64.800781 26.21875 64.019531 26.058594 63.820312 25.878906 C 63.699219 25.78125 64.621094 24.800781 64.839844 24.800781 C 64.941406 24.800781 64.980469 25.039062 64.921875 25.339844 Z M 30.960938 25.261719 C 29.960938 26.101562 29.800781 26.820312 30.320312 27.921875 C 31.101562 29.578125 33.480469 29.601562 34.320312 27.980469 C 34.660156 27.28125 34.558594 26.039062 34.121094 25.878906 C 33.980469 25.820312 33.460938 26.019531 32.941406 26.320312 C 32.179688 26.738281 32.039062 26.898438 32.21875 27.121094 C 32.398438 27.339844 32.539062 27.339844 33.019531 27.078125 C 33.558594 26.820312 33.601562 26.820312 33.601562 27.140625 C 33.601562 27.621094 33.398438 27.898438 32.859375 28.179688 C 32.039062 28.601562 31 27.859375 31 26.820312 C 31 26.261719 31.800781 25.578125 32.398438 25.621094 C 32.679688 25.660156 33.121094 25.601562 33.378906 25.519531 C 33.859375 25.359375 33.859375 25.339844 33.5 25.078125 C 32.898438 24.640625 31.578125 24.738281 30.960938 25.261719 Z M 68.859375 25.71875 C 68.738281 26.039062 69.121094 26.480469 69.660156 26.660156 C 69.761719 26.679688 69.480469 27.339844 69.019531 28.078125 C 68.558594 28.839844 68.21875 29.578125 68.28125 29.71875 C 68.5 30.300781 68.980469 29.960938 69.71875 28.699219 C 70.160156 28 70.601562 27.398438 70.699219 27.398438 C 70.820312 27.398438 71.101562 27.539062 71.339844 27.699219 C 71.738281 27.980469 71.800781 27.980469 72 27.621094 C 72.179688 27.261719 72.078125 27.140625 71.140625 26.539062 C 69.199219 25.28125 69.039062 25.238281 68.859375 25.71875 Z M 26.800781 27.878906 C 26.601562 28.140625 26.679688 28.359375 27.300781 29.179688 L 28.019531 30.179688 L 27.058594 29.878906 C 25.640625 29.421875 24.679688 29.320312 24.5 29.578125 C 24.378906 29.800781 25.199219 31.039062 26.5 32.621094 C 26.878906 33.078125 26.980469 33.121094 27.28125 32.878906 C 27.621094 32.640625 27.601562 32.558594 26.898438 31.621094 C 26.5 31.058594 26.238281 30.601562 26.320312 30.601562 C 26.398438 30.601562 27.078125 30.78125 27.859375 31.019531 C 29.039062 31.359375 29.300781 31.398438 29.519531 31.160156 C 29.761719 30.921875 29.621094 30.640625 28.578125 29.300781 C 27.921875 28.421875 27.300781 27.679688 27.21875 27.640625 C 27.121094 27.621094 26.941406 27.71875 26.800781 27.878906 Z M 72.71875 30.238281 C 71.558594 31.71875 71.460938 31.921875 71.738281 32.140625 C 71.921875 32.28125 72.121094 32.398438 72.179688 32.398438 C 72.300781 32.378906 74.320312 29.820312 74.660156 29.28125 C 74.761719 29.121094 74.660156 28.941406 74.421875 28.800781 C 74.078125 28.621094 73.859375 28.800781 72.71875 30.238281 Z M 75.941406 31.558594 C 75.519531 32.019531 75.519531 32.601562 75.921875 33.480469 C 76.339844 34.339844 76.179688 34.921875 75.601562 34.601562 C 75.339844 34.460938 75.199219 34.179688 75.199219 33.820312 C 75.199219 33.121094 74.78125 32.699219 74.441406 33.039062 C 74 33.480469 74.179688 34.21875 74.878906 34.921875 C 75.640625 35.679688 76.359375 35.800781 76.859375 35.238281 C 77.320312 34.738281 77.28125 34.121094 76.761719 33.199219 C 76.398438 32.578125 76.359375 32.359375 76.539062 32.179688 C 76.878906 31.839844 77.660156 32.539062 77.539062 33.039062 C 77.421875 33.441406 77.878906 33.898438 78.199219 33.699219 C 78.300781 33.640625 78.398438 33.28125 78.398438 32.898438 C 78.398438 32.398438 78.238281 32.101562 77.78125 31.71875 C 77.058594 31.101562 76.398438 31.058594 75.941406 31.558594 Z M 44.578125 32.898438 C 44.558594 33.398438 44.558594 33.941406 44.558594 34.101562 C 44.558594 34.738281 44.621094 34.800781 45.5 34.800781 C 46.160156 34.800781 46.398438 34.71875 46.398438 34.5 C 46.398438 34.300781 46.199219 34.199219 45.800781 34.199219 C 45.398438 34.199219 45.199219 34.101562 45.199219 33.898438 C 45.199219 33.71875 45.378906 33.601562 45.699219 33.601562 C 46.019531 33.601562 46.199219 33.480469 46.199219 33.300781 C 46.199219 33.121094 46.019531 33 45.699219 33 C 45.378906 33 45.199219 32.878906 45.199219 32.699219 C 45.199219 32.5 45.398438 32.398438 45.800781 32.398438 C 46.140625 32.398438 46.398438 32.300781 46.398438 32.199219 C 46.398438 32.078125 46 32 45.5 32 L 44.601562 32 Z M 47.941406 32.140625 C 47.859375 32.199219 47.800781 32.480469 47.800781 32.738281 C 47.800781 33.101562 47.980469 33.300781 48.480469 33.5 C 48.859375 33.660156 49.21875 33.878906 49.28125 33.980469 C 49.480469 34.300781 48.921875 34.359375 48.359375 34.058594 C 47.898438 33.839844 47.800781 33.839844 47.800781 34.058594 C 47.800781 34.839844 49.421875 35.121094 49.800781 34.421875 C 50.101562 33.859375 49.859375 33.441406 49.078125 33.160156 C 48.699219 33.039062 48.398438 32.839844 48.398438 32.761719 C 48.398438 32.480469 49.058594 32.300781 49.160156 32.558594 C 49.199219 32.699219 49.398438 32.800781 49.621094 32.800781 C 49.960938 32.800781 49.980469 32.738281 49.800781 32.398438 C 49.640625 32.101562 49.378906 32 48.820312 32 C 48.398438 32 48 32.058594 47.941406 32.140625 Z M 51.199219 32.300781 C 51.199219 32.480469 51.378906 32.601562 51.699219 32.601562 C 52.179688 32.601562 52.199219 32.660156 52.199219 33.699219 C 52.199219 34.539062 52.261719 34.800781 52.5 34.800781 C 52.738281 34.800781 52.800781 34.539062 52.800781 33.699219 C 52.800781 32.738281 52.839844 32.601562 53.199219 32.601562 C 53.421875 32.601562 53.601562 32.460938 53.601562 32.300781 C 53.601562 32.058594 53.339844 32 52.398438 32 C 51.460938 32 51.199219 32.058594 51.199219 32.300781 Z M 21.019531 32.878906 C 20.820312 33.101562 20.980469 33.578125 21.699219 35.121094 C 22.199219 36.199219 22.640625 37.121094 22.699219 37.160156 C 22.921875 37.378906 23.378906 36.71875 23.28125 36.320312 C 23.121094 35.679688 23.921875 34.738281 24.519531 34.859375 C 24.800781 34.898438 25.121094 34.800781 25.320312 34.578125 C 25.679688 34.179688 25.621094 34.140625 22.839844 33.078125 C 21.378906 32.519531 21.320312 32.519531 21.019531 32.878906 Z M 22.898438 34.039062 C 23.5 34.300781 23.519531 34.441406 23.039062 34.859375 C 22.699219 35.179688 22.660156 35.160156 22.339844 34.5 C 21.980469 33.761719 22.078125 33.660156 22.898438 34.039062 Z M 55 34.5 C 55 34.660156 55.140625 34.800781 55.300781 34.800781 C 55.460938 34.800781 55.601562 34.660156 55.601562 34.5 C 55.601562 34.339844 55.460938 34.199219 55.300781 34.199219 C 55.140625 34.199219 55 34.339844 55 34.5 Z M 79.5 35.601562 C 79.160156 35.960938 79.160156 36.101562 79.398438 37.101562 C 79.601562 37.921875 79.601562 38.28125 79.441406 38.441406 C 79.078125 38.800781 78.640625 38.28125 78.558594 37.460938 C 78.5 36.621094 78.121094 36.398438 77.800781 36.980469 C 77.320312 37.878906 78.320312 39.398438 79.378906 39.398438 C 79.820312 39.398438 80.078125 39.261719 80.339844 38.878906 C 80.660156 38.378906 80.660156 38.28125 80.359375 37.460938 C 79.898438 36.179688 80.179688 35.601562 80.898438 36.320312 C 81.101562 36.519531 81.179688 36.839844 81.121094 37.058594 C 80.980469 37.640625 81.359375 38.078125 81.71875 37.78125 C 82.5 37.140625 81.5 35.199219 80.421875 35.199219 C 80.121094 35.199219 79.699219 35.378906 79.5 35.601562 Z M 17.039062 37.941406 C 16.878906 38.21875 17.121094 38.480469 18.5 39.441406 C 19.421875 40.078125 20.21875 40.601562 20.261719 40.601562 C 20.519531 40.601562 21.820312 38.519531 21.71875 38.28125 C 21.601562 38 21 37.878906 21 38.140625 C 20.980469 38.238281 20.78125 38.539062 20.539062 38.859375 L 20.078125 39.398438 L 18.800781 38.5 C 18.101562 38 17.460938 37.601562 17.378906 37.601562 C 17.28125 37.601562 17.140625 37.761719 17.039062 37.941406 Z M 51.601562 37.761719 C 51.101562 37.921875 50.800781 38.441406 50.800781 39.199219 C 50.800781 40.601562 52.300781 41.160156 52.898438 39.980469 C 53.519531 38.800781 52.699219 37.398438 51.601562 37.761719 Z M 52.398438 38.601562 C 52.71875 39.199219 52.441406 40.039062 51.921875 39.960938 C 51.160156 39.859375 51.261719 38.21875 52.039062 38.199219 C 52.121094 38.199219 52.28125 38.378906 52.398438 38.601562 Z M 43.640625 38.039062 C 43.5 38.179688 43.398438 38.398438 43.398438 38.558594 C 43.398438 38.800781 43.5 38.78125 43.898438 38.519531 C 44.960938 37.820312 45.140625 38.71875 44.101562 39.519531 C 43.101562 40.28125 43.179688 40.601562 44.398438 40.601562 C 45.160156 40.601562 45.398438 40.519531 45.398438 40.300781 C 45.398438 40.121094 45.21875 40 44.980469 40 L 44.578125 40 L 44.980469 39.480469 C 45.679688 38.578125 45.421875 37.800781 44.398438 37.800781 C 44.121094 37.800781 43.78125 37.898438 43.640625 38.039062 Z M 47.320312 38.101562 C 46.898438 38.519531 46.898438 39.878906 47.320312 40.28125 C 48.339844 41.300781 49.820312 39.839844 49.160156 38.460938 C 48.839844 37.78125 47.839844 37.578125 47.320312 38.101562 Z M 48.699219 38.820312 C 48.898438 39.460938 48.621094 40.039062 48.140625 39.960938 C 47.820312 39.921875 47.679688 39.738281 47.640625 39.339844 C 47.519531 38.320312 48.421875 37.878906 48.699219 38.820312 Z M 54.601562 38 C 54.601562 38.199219 54.878906 38.28125 55.359375 38.21875 C 55.558594 38.179688 55.539062 38.300781 55.300781 38.660156 C 55 39.140625 55 39.160156 55.5 39.28125 C 55.78125 39.359375 56 39.558594 56 39.71875 C 56 39.980469 55.859375 40.019531 55.300781 39.921875 C 54.921875 39.839844 54.601562 39.859375 54.601562 39.960938 C 54.601562 40.28125 55.078125 40.601562 55.601562 40.601562 C 56.539062 40.601562 56.921875 39.761719 56.28125 39.101562 C 56.019531 38.859375 56 38.71875 56.179688 38.539062 C 56.660156 38.058594 56.421875 37.800781 55.5 37.800781 C 55 37.800781 54.601562 37.878906 54.601562 38 Z M 82.199219 40.421875 C 81.261719 40.960938 80.421875 41.421875 80.320312 41.460938 C 80.160156 41.519531 81.28125 43.699219 81.578125 43.878906 C 81.660156 43.941406 81.839844 43.898438 82 43.800781 C 82.238281 43.660156 82.199219 43.480469 81.820312 42.78125 C 81.441406 42.101562 81.398438 41.921875 81.621094 41.78125 C 82.101562 41.480469 82.320312 41.578125 82.660156 42.300781 C 82.878906 42.78125 83.078125 42.960938 83.300781 42.878906 C 83.679688 42.71875 83.679688 42.398438 83.28125 41.839844 C 83.101562 41.578125 83.019531 41.261719 83.078125 41.101562 C 83.28125 40.578125 83.800781 40.78125 84.140625 41.5 C 84.5 42.238281 84.558594 42.28125 84.960938 42.019531 C 85.238281 41.839844 85.101562 41.421875 84.238281 40 L 83.898438 39.460938 Z M 15.199219 40.898438 C 14.898438 41.261719 14.800781 41.179688 16.359375 42.019531 C 17.621094 42.699219 17.921875 43.078125 17.679688 43.679688 C 17.5 44.160156 16.738281 44.078125 15.441406 43.421875 C 14.28125 42.839844 14.28125 42.839844 14.019531 43.238281 C 13.71875 43.71875 13.621094 43.621094 15.140625 44.378906 C 17.019531 45.320312 17.980469 45.179688 18.539062 43.859375 C 19 42.738281 18.640625 42.121094 16.980469 41.28125 C 16.21875 40.898438 15.578125 40.601562 15.519531 40.601562 C 15.480469 40.601562 15.339844 40.738281 15.199219 40.898438 Z M 85.101562 44.699219 C 82.441406 45.699219 82.359375 45.761719 82.601562 46.179688 C 82.78125 46.519531 82.898438 46.558594 83.320312 46.398438 C 84.21875 46.058594 84.519531 46.640625 83.800781 47.300781 C 83.378906 47.679688 83.28125 48.300781 83.558594 48.761719 C 83.679688 48.941406 83.839844 48.839844 84.160156 48.398438 C 84.578125 47.859375 84.679688 47.800781 85.421875 47.921875 C 86.078125 48.039062 86.300781 47.980469 86.699219 47.601562 C 86.980469 47.339844 87.199219 46.921875 87.199219 46.660156 C 87.199219 46.21875 86.660156 44.640625 86.421875 44.359375 C 86.359375 44.300781 85.761719 44.441406 85.101562 44.699219 Z M 86.199219 45.898438 C 86.460938 46.558594 86.261719 47 85.71875 47 C 85.421875 47 85.179688 46.820312 85.039062 46.5 C 84.71875 45.820312 84.71875 45.820312 85.261719 45.601562 C 85.921875 45.339844 86 45.359375 86.199219 45.898438 Z M 49.898438 45.421875 C 47.601562 45.5 43.21875 45.558594 40.21875 45.558594 C 34.78125 45.558594 34.71875 45.558594 34.359375 46 C 34.160156 46.238281 34 46.78125 34 47.179688 C 34 48.140625 33.839844 48.300781 32.898438 48.320312 C 32.460938 48.320312 31.140625 48.359375 29.980469 48.378906 C 28.679688 48.421875 27.699219 48.359375 27.441406 48.21875 C 26.941406 47.960938 22.601562 47.578125 21.839844 47.71875 C 20.179688 48.058594 19.480469 49.941406 20.519531 51.179688 L 21.039062 51.800781 L 23.300781 51.800781 C 24.539062 51.800781 26.039062 51.699219 26.621094 51.578125 C 27.21875 51.460938 27.839844 51.359375 28 51.359375 C 28.160156 51.378906 29.160156 51.421875 30.199219 51.460938 C 31.238281 51.5 32.421875 51.558594 32.820312 51.578125 C 33.539062 51.601562 33.558594 51.621094 33.699219 52.539062 C 33.898438 53.921875 34.320312 54.78125 34.839844 54.960938 C 35.460938 55.160156 62.519531 54.839844 63.398438 54.621094 L 64.101562 54.441406 L 63.140625 54.421875 C 62.480469 54.398438 62.21875 54.320312 62.320312 54.179688 C 62.421875 54 62.058594 53.980469 60.980469 54.058594 C 60.160156 54.121094 54.101562 54.199219 47.5 54.238281 L 35.5 54.300781 L 35.441406 51 C 35.398438 49.179688 35.441406 47.378906 35.539062 47 L 35.71875 46.300781 L 40.71875 46.179688 C 43.460938 46.121094 49.839844 45.980469 54.921875 45.898438 L 64.121094 45.738281 L 64.578125 47.78125 C 65.039062 49.800781 65.039062 49.859375 64.71875 51.960938 C 64.320312 54.601562 64.320312 54.460938 64.839844 54.28125 C 65.238281 54.160156 65.261719 54.179688 65.039062 54.460938 C 64.878906 54.640625 64.621094 54.71875 64.441406 54.660156 C 64.160156 54.558594 64.140625 54.601562 64.339844 54.800781 C 64.800781 55.300781 65.519531 54.558594 65.898438 53.160156 L 66.238281 51.898438 L 67.960938 51.898438 C 68.921875 51.898438 70.28125 51.878906 71 51.839844 C 71.71875 51.800781 73.640625 51.859375 75.28125 51.980469 C 78.761719 52.199219 79.421875 52.058594 79.878906 50.980469 C 80.238281 50.140625 80 49.300781 79.199219 48.5 C 78.601562 47.921875 78.539062 47.898438 76.738281 47.921875 C 75.660156 47.941406 74.320312 48.101562 73.5 48.320312 C 72.378906 48.621094 71.539062 48.679688 69.261719 48.640625 C 66.71875 48.578125 66.398438 48.539062 66.398438 48.238281 C 66.398438 47.460938 65.921875 46.300781 65.398438 45.761719 L 64.839844 45.199219 L 59.460938 45.238281 C 56.519531 45.261719 52.21875 45.339844 49.898438 45.421875 Z M 65.121094 47.21875 C 64.941406 47.480469 64.800781 47.578125 64.800781 47.460938 C 64.800781 47.320312 64.898438 47.160156 65.019531 47.101562 C 65.28125 46.921875 65.140625 46.5 64.800781 46.5 C 64.660156 46.5 64.519531 46.320312 64.480469 46.121094 C 64.441406 45.78125 64.5 45.800781 64.941406 46.238281 C 65.421875 46.738281 65.441406 46.78125 65.121094 47.21875 Z M 65.421875 47.921875 C 65.199219 48.21875 65 48.378906 65 48.28125 C 65 48 65.621094 47.160156 65.738281 47.28125 C 65.800781 47.339844 65.660156 47.621094 65.421875 47.921875 Z M 65.71875 48.898438 C 65.699219 49.28125 65.578125 49.699219 65.460938 49.820312 C 65.28125 50 65.238281 49.980469 65.28125 49.738281 C 65.300781 49.558594 65.378906 49.339844 65.460938 49.28125 C 65.679688 49.039062 65.621094 48.761719 65.378906 48.921875 C 65.21875 49 65.21875 48.921875 65.378906 48.621094 C 65.699219 48.039062 65.78125 48.101562 65.71875 48.898438 Z M 22.640625 48.640625 C 22.5 48.78125 22.398438 48.921875 22.398438 48.980469 C 22.398438 49.160156 26.140625 49.121094 26.320312 48.941406 C 26.398438 48.859375 26.160156 48.800781 25.78125 48.78125 C 25.398438 48.761719 24.878906 48.679688 24.601562 48.601562 C 24.28125 48.5 24.621094 48.460938 25.5 48.519531 C 27.800781 48.679688 27.699219 48.621094 27.699219 49.878906 L 27.699219 50.980469 L 26.699219 51.078125 C 23.261719 51.421875 22.621094 51.421875 22.441406 51.058594 C 21.898438 50.019531 21.980469 48.398438 22.558594 48.398438 C 22.800781 48.398438 22.820312 48.460938 22.640625 48.640625 Z M 24 48.480469 C 24 48.539062 23.921875 48.640625 23.800781 48.699219 C 23.699219 48.761719 23.601562 48.71875 23.601562 48.621094 C 23.601562 48.5 23.699219 48.398438 23.800781 48.398438 C 23.921875 48.398438 24 48.441406 24 48.480469 Z M 76.398438 48.601562 C 76.398438 48.699219 75.980469 48.820312 75.460938 48.820312 C 74.5 48.859375 74.5 48.859375 75.199219 49.019531 C 75.800781 49.160156 75.738281 49.160156 74.898438 49.101562 C 74.359375 49.039062 73.761719 49.101562 73.601562 49.199219 C 73.378906 49.339844 73.679688 49.398438 74.601562 49.421875 C 75.320312 49.441406 76.019531 49.441406 76.160156 49.421875 C 76.28125 49.398438 76.398438 49.539062 76.421875 49.738281 C 76.421875 50.058594 76.441406 50.058594 76.578125 49.699219 C 76.679688 49.480469 76.71875 49.101562 76.679688 48.839844 C 76.601562 48.480469 76.679688 48.398438 77.078125 48.398438 C 77.460938 48.398438 77.578125 48.539062 77.679688 49.101562 C 77.761719 49.480469 77.699219 50.160156 77.578125 50.601562 L 77.339844 51.421875 L 74.839844 51.359375 L 72.339844 51.300781 L 72.320312 50.179688 L 72.300781 49.078125 L 74.101562 48.761719 C 76.421875 48.359375 76.398438 48.359375 76.398438 48.601562 Z M 32.519531 49.121094 C 32.460938 49.300781 32.398438 49.738281 32.398438 50.121094 L 32.398438 50.800781 L 30.398438 50.800781 C 28.460938 50.800781 28.398438 50.78125 28.28125 50.320312 C 28.121094 49.660156 28.238281 49.160156 28.578125 49.039062 C 28.78125 48.980469 28.800781 49.078125 28.699219 49.421875 C 28.621094 49.699219 28.640625 49.800781 28.738281 49.660156 C 28.859375 49.5 29.378906 49.421875 30.261719 49.460938 C 31 49.480469 31.601562 49.441406 31.601562 49.359375 C 31.601562 49.261719 31.359375 49.179688 31.058594 49.160156 C 30.679688 49.140625 30.800781 49.101562 31.398438 49 C 31.898438 48.921875 32.378906 48.839844 32.480469 48.839844 C 32.558594 48.820312 32.578125 48.941406 32.519531 49.121094 Z M 33.738281 49.121094 C 33.800781 49.300781 33.761719 49.5 33.660156 49.578125 C 33.539062 49.640625 33.480469 49.859375 33.5 50.039062 C 33.539062 50.21875 33.421875 50.5 33.238281 50.640625 C 32.941406 50.859375 32.941406 50.859375 33.121094 50.601562 C 33.238281 50.441406 33.320312 50.058594 33.300781 49.761719 C 33.28125 49.460938 33.339844 49.261719 33.441406 49.320312 C 33.519531 49.378906 33.601562 49.339844 33.601562 49.21875 C 33.601562 49.121094 33.480469 48.980469 33.359375 48.941406 C 33.160156 48.859375 33.160156 48.820312 33.359375 48.820312 C 33.5 48.800781 33.660156 48.941406 33.738281 49.121094 Z M 66.660156 49.699219 C 66.519531 50.121094 66.421875 50.078125 66.460938 49.621094 C 66.460938 49.398438 66.558594 49.261719 66.640625 49.320312 C 66.71875 49.378906 66.738281 49.539062 66.660156 49.699219 Z M 71 49.441406 C 71 49.539062 70.359375 49.601562 69.558594 49.601562 C 67.960938 49.601562 67.878906 49.800781 69.398438 50 C 70.019531 50.078125 70.421875 50.039062 70.480469 49.921875 C 70.539062 49.78125 70.640625 49.800781 70.78125 49.980469 C 70.941406 50.21875 71 50.179688 71.121094 49.738281 C 71.320312 48.898438 71.699219 49.21875 71.699219 50.21875 L 71.699219 51.101562 L 70.199219 51.238281 C 69.378906 51.300781 68.378906 51.421875 68 51.480469 L 67.300781 51.578125 L 67.300781 49.300781 L 69.140625 49.300781 C 70.160156 49.300781 71 49.359375 71 49.441406 Z M 79.28125 49.519531 C 79.339844 49.679688 79.320312 49.761719 79.199219 49.699219 C 79.078125 49.640625 79 49.5 79 49.378906 C 79 49.101562 79.140625 49.160156 79.28125 49.519531 Z M 65.601562 50.800781 C 65.480469 51.039062 65.320312 51.199219 65.261719 51.140625 C 65.21875 51.078125 65.28125 50.859375 65.421875 50.621094 C 65.761719 50.101562 65.898438 50.238281 65.601562 50.800781 Z M 79.398438 50.601562 C 79.398438 50.699219 79.359375 50.800781 79.320312 50.800781 C 79.261719 50.800781 79.160156 50.699219 79.101562 50.601562 C 79.039062 50.480469 79.078125 50.398438 79.179688 50.398438 C 79.300781 50.398438 79.398438 50.480469 79.398438 50.601562 Z M 34.78125 51.058594 C 34.941406 51.261719 34.921875 51.339844 34.738281 51.339844 C 34.578125 51.339844 34.460938 51.21875 34.460938 51.058594 C 34.460938 50.921875 34.480469 50.800781 34.5 50.800781 C 34.539062 50.800781 34.660156 50.921875 34.78125 51.058594 Z M 65.5 51.800781 C 65.339844 51.980469 65.261719 52.179688 65.320312 52.238281 C 65.378906 52.300781 65.339844 52.421875 65.238281 52.480469 C 65.058594 52.578125 65.058594 52.199219 65.199219 51.800781 C 65.21875 51.738281 65.238281 51.640625 65.238281 51.578125 C 65.21875 51.519531 65.359375 51.460938 65.519531 51.460938 C 65.761719 51.460938 65.761719 51.519531 65.5 51.800781 Z M 35.199219 52.578125 C 35.199219 52.78125 35.039062 53.078125 34.859375 53.21875 C 34.558594 53.441406 34.539062 53.441406 34.761719 53.199219 C 34.878906 53.039062 35 52.738281 35 52.5 C 34.980469 52.101562 34.980469 52.101562 34.699219 52.480469 C 34.539062 52.699219 34.398438 52.78125 34.398438 52.679688 C 34.398438 52.378906 34.839844 52 35.039062 52.121094 C 35.121094 52.179688 35.199219 52.378906 35.199219 52.578125 Z M 65.601562 53.179688 C 65.601562 53.398438 65.300781 53.699219 65.019531 53.761719 C 64.800781 53.800781 64.78125 53.761719 64.960938 53.539062 C 65.101562 53.378906 65.160156 53.21875 65.101562 53.160156 C 65.039062 53.121094 65.140625 53.058594 65.300781 53.058594 C 65.460938 53.058594 65.601562 53.121094 65.601562 53.179688 Z M 35.121094 53.898438 C 34.941406 54.078125 34.800781 54.160156 34.800781 54.058594 C 34.800781 53.820312 35.238281 53.378906 35.359375 53.5 C 35.398438 53.539062 35.300781 53.71875 35.121094 53.898438 Z M 35.121094 53.898438 " /><path style=" stroke:none;fill-rule:nonzero;fill:rgb(0%,0%,0%);fill-opacity:1;" d="M 77.121094 49.5 C 76.941406 50.019531 76.980469 50.140625 77.21875 49.738281 C 77.339844 49.539062 77.398438 49.320312 77.339844 49.28125 C 77.300781 49.21875 77.199219 49.320312 77.121094 49.5 Z M 13.261719 46.699219 C 12.5 47.019531 12 47.921875 12 48.941406 C 12.019531 50.160156 12.921875 51 14.238281 51 C 16.519531 51 17.199219 47.558594 15.101562 46.679688 C 14.261719 46.339844 14.078125 46.339844 13.261719 46.699219 Z M 15 47.761719 C 15.898438 48.480469 15.339844 50 14.160156 50 C 13.5 50 12.800781 49.378906 12.800781 48.800781 C 12.800781 48.28125 13.660156 47.398438 14.160156 47.398438 C 14.378906 47.398438 14.761719 47.558594 15 47.761719 Z M 40.558594 46.738281 C 41.699219 46.78125 43.5 46.78125 44.558594 46.738281 C 45.621094 46.71875 44.699219 46.679688 42.5 46.679688 C 40.300781 46.679688 39.421875 46.71875 40.558594 46.738281 Z M 59.359375 46.738281 C 59.699219 46.78125 60.300781 46.78125 60.660156 46.738281 C 61 46.699219 60.71875 46.660156 60 46.660156 C 59.28125 46.660156 59 46.699219 59.359375 46.738281 Z M 37.859375 47.140625 C 38.378906 47.179688 39.21875 47.179688 39.761719 47.140625 C 40.28125 47.101562 39.839844 47.078125 38.800781 47.078125 C 37.761719 47.078125 37.320312 47.101562 37.859375 47.140625 Z M 44.058594 47.140625 C 44.578125 47.179688 45.421875 47.179688 45.960938 47.140625 C 46.480469 47.101562 46.039062 47.078125 45 47.078125 C 43.960938 47.078125 43.519531 47.101562 44.058594 47.140625 Z M 60.058594 47.140625 C 60.578125 47.179688 61.398438 47.179688 61.859375 47.140625 C 62.320312 47.101562 61.898438 47.078125 60.898438 47.078125 C 59.921875 47.078125 59.539062 47.101562 60.058594 47.140625 Z M 40.558594 47.738281 C 40.898438 47.78125 41.5 47.78125 41.859375 47.738281 C 42.199219 47.699219 41.921875 47.660156 41.199219 47.660156 C 40.480469 47.660156 40.199219 47.699219 40.558594 47.738281 Z M 52.761719 49.339844 C 52.898438 49.398438 53.078125 49.378906 53.140625 49.320312 C 53.21875 49.261719 53.101562 49.199219 52.878906 49.21875 C 52.660156 49.21875 52.601562 49.28125 52.761719 49.339844 Z M 54.261719 49.539062 C 54.558594 49.578125 55.039062 49.578125 55.359375 49.539062 C 55.660156 49.5 55.398438 49.460938 54.800781 49.460938 C 54.199219 49.460938 53.941406 49.5 54.261719 49.539062 Z M 57.261719 49.738281 C 58 49.78125 59.179688 49.78125 59.859375 49.738281 C 60.539062 49.699219 59.941406 49.679688 58.5 49.679688 C 57.078125 49.679688 56.519531 49.699219 57.261719 49.738281 Z M 86.140625 50.300781 C 85.160156 50.558594 84.339844 50.800781 84.300781 50.839844 C 84.261719 50.878906 84.261719 51.101562 84.320312 51.339844 C 84.441406 51.738281 84.441406 51.738281 86.460938 51.199219 C 87.601562 50.898438 88.5 50.558594 88.480469 50.421875 C 88.421875 49.660156 88.519531 49.679688 86.140625 50.300781 Z M 49.558594 50.140625 C 49.898438 50.179688 50.5 50.179688 50.859375 50.140625 C 51.199219 50.101562 50.921875 50.058594 50.199219 50.058594 C 49.480469 50.058594 49.199219 50.101562 49.558594 50.140625 Z M 48.238281 50.738281 C 49.640625 50.78125 51.980469 50.78125 53.441406 50.738281 C 54.898438 50.71875 53.761719 50.679688 50.898438 50.679688 C 48.039062 50.679688 46.839844 50.71875 48.238281 50.738281 Z M 11.121094 53.179688 C 10.761719 53.558594 10.339844 55.601562 10.558594 55.820312 C 10.71875 55.960938 13.539062 56.398438 14.28125 56.398438 C 14.699219 56.398438 14.761719 56.28125 14.878906 55.179688 C 15 54.238281 14.960938 53.859375 14.699219 53.480469 C 14.378906 52.980469 13.460938 52.820312 13.078125 53.199219 C 12.921875 53.359375 12.78125 53.320312 12.601562 53.101562 C 12.261719 52.679688 11.539062 52.71875 11.121094 53.179688 Z M 12.398438 54.5 C 12.398438 55.121094 12.339844 55.199219 11.898438 55.199219 C 11.480469 55.199219 11.398438 55.101562 11.398438 54.640625 C 11.398438 53.980469 11.539062 53.800781 12.039062 53.800781 C 12.320312 53.800781 12.398438 53.960938 12.398438 54.5 Z M 13.878906 53.921875 C 14.078125 54 14.199219 54.28125 14.199219 54.71875 C 14.199219 55.339844 14.160156 55.398438 13.578125 55.398438 C 13 55.398438 12.980469 55.378906 13.101562 54.738281 C 13.320312 53.761719 13.359375 53.71875 13.878906 53.921875 Z M 61.960938 52.941406 C 62.199219 52.980469 62.558594 52.980469 62.761719 52.941406 C 62.941406 52.878906 62.738281 52.839844 62.300781 52.859375 C 61.859375 52.859375 61.699219 52.898438 61.960938 52.941406 Z M 37.960938 53.339844 C 38.199219 53.378906 38.601562 53.378906 38.859375 53.339844 C 39.101562 53.300781 38.898438 53.261719 38.398438 53.261719 C 37.898438 53.261719 37.699219 53.300781 37.960938 53.339844 Z M 88.5 53.300781 C 88.398438 53.339844 87.539062 53.480469 86.601562 53.601562 L 84.878906 53.820312 L 85.058594 55.21875 C 85.21875 56.398438 85.320312 56.601562 85.660156 56.601562 C 86.019531 56.601562 86.039062 56.5 85.921875 55.601562 C 85.800781 54.640625 85.800781 54.601562 86.28125 54.601562 C 86.699219 54.601562 86.78125 54.71875 86.898438 55.421875 C 87 56.019531 87.121094 56.199219 87.359375 56.160156 C 87.621094 56.101562 87.679688 55.898438 87.640625 55.238281 C 87.578125 54.460938 87.601562 54.398438 88.078125 54.398438 C 88.5 54.398438 88.578125 54.5 88.640625 55.140625 C 88.679688 55.738281 88.800781 55.921875 89.121094 55.960938 C 89.519531 56.019531 89.519531 55.960938 89.339844 54.601562 C 89.160156 53.300781 89.039062 53.121094 88.5 53.300781 Z M 46.859375 53.539062 C 47.378906 53.578125 48.199219 53.578125 48.660156 53.539062 C 49.121094 53.5 48.699219 53.480469 47.699219 53.480469 C 46.71875 53.480469 46.339844 53.5 46.859375 53.539062 Z M 59.261719 53.539062 C 59.898438 53.578125 60.878906 53.578125 61.460938 53.539062 C 62.039062 53.5 61.519531 53.480469 60.300781 53.480469 C 59.101562 53.480469 58.621094 53.5 59.261719 53.539062 Z M 38.699219 53.800781 C 39.738281 53.980469 41.519531 54.058594 41.378906 53.921875 C 41.339844 53.878906 40.5 53.800781 39.5 53.738281 C 38.179688 53.660156 37.960938 53.679688 38.699219 53.800781 Z M 39.238281 59 C 37.121094 59.460938 35.738281 60.820312 35.820312 62.339844 C 35.878906 63.179688 35.859375 63.199219 34.699219 63.921875 C 32.300781 65.339844 30.800781 67.359375 30.800781 69.140625 C 30.800781 71.058594 31.78125 71.738281 34.238281 71.539062 C 37.058594 71.300781 39.078125 69.941406 43.578125 65.21875 C 46.800781 61.859375 48.28125 60.601562 49.078125 60.601562 C 49.859375 60.578125 48.480469 60 46.441406 59.480469 C 44.300781 58.941406 40.679688 58.699219 39.238281 59 Z M 46.960938 59.921875 C 48.601562 60.261719 48.941406 60.460938 48.199219 60.699219 C 47.421875 60.941406 45.441406 62.578125 42.5 65.398438 C 39.238281 68.519531 37.71875 69.71875 35.941406 70.621094 C 33.320312 71.960938 31 71.398438 31 69.441406 C 31 68.039062 31.859375 66.738281 33.78125 65.199219 C 35.519531 63.820312 37.621094 62.921875 39.160156 62.898438 C 40.339844 62.898438 40.480469 62.941406 40.921875 63.5 C 41.398438 64.121094 41.558594 64.058594 41.199219 63.398438 C 40.78125 62.621094 38.820312 62.378906 37.140625 62.878906 C 36.640625 63.019531 36.179688 63.101562 36.121094 63.039062 C 35.800781 62.738281 36.039062 61.578125 36.519531 61.019531 C 37.140625 60.28125 37.558594 60.039062 38.800781 59.679688 C 40 59.320312 44.761719 59.460938 46.960938 59.921875 Z M 46.960938 59.921875 " /><path style=" stroke:none;fill-rule:nonzero;fill:rgb(0%,0%,0%);fill-opacity:1;" d="M 52.898438 60.078125 C 51.300781 60.601562 46.621094 63.140625 45.441406 64.140625 C 45.019531 64.5 44.640625 65.121094 44.378906 65.878906 C 43.859375 67.398438 43.640625 69.679688 44 70.101562 C 44.320312 70.480469 45.179688 70.480469 45.679688 70.101562 C 46.019531 69.839844 46.019531 69.820312 45.5 69.859375 C 44.640625 69.921875 44.480469 69.460938 44.761719 67.800781 C 45.101562 65.859375 45.71875 64.160156 46.261719 63.761719 C 47.21875 63.019531 51.78125 60.839844 53.078125 60.5 C 54.359375 60.140625 54.5 60.140625 55.019531 60.460938 C 55.640625 60.800781 55.800781 60.621094 55.28125 60.121094 C 54.921875 59.738281 54 59.71875 52.898438 60.078125 Z M 52.898438 60.078125 " /><path style=" stroke:none;fill-rule:nonzero;fill:rgb(0%,0%,0%);fill-opacity:1;" d="M 57.699219 61.519531 C 56.421875 62.179688 54.800781 63.578125 52.101562 66.300781 C 49.140625 69.300781 48.238281 70 47.359375 70 C 46.621094 70 46.640625 69.640625 47.460938 68.578125 C 48.179688 67.640625 48.339844 67.539062 49.539062 67.21875 C 51.140625 66.78125 52.359375 65.199219 51.101562 65.199219 C 49.460938 65.199219 46.199219 68.121094 46.199219 69.558594 C 46.199219 70.578125 47.460938 70.539062 49.058594 69.5 L 49.800781 69 L 49.800781 69.578125 C 49.800781 70.300781 50.199219 70.460938 51.28125 70.179688 C 52.941406 69.738281 55.621094 67.5 55.921875 66.28125 C 56.238281 64.980469 55.460938 64.941406 53.601562 66.140625 C 52.578125 66.800781 52.539062 66.820312 53 66.300781 C 53.898438 65.300781 57.28125 62.339844 58.179688 61.761719 C 59.160156 61.140625 58.78125 60.960938 57.699219 61.519531 Z M 51.199219 65.800781 C 50.960938 66.261719 49.300781 67.261719 48.980469 67.160156 C 48.859375 67.121094 49.238281 66.699219 49.820312 66.238281 C 51.019531 65.320312 51.558594 65.140625 51.199219 65.800781 Z M 55.601562 65.679688 C 55.601562 66.039062 52.039062 69.460938 51.21875 69.878906 C 50.558594 70.238281 50.199219 70.160156 50.199219 69.679688 C 50.199219 69.019531 52.679688 66.800781 54.5 65.820312 C 55.421875 65.320312 55.601562 65.300781 55.601562 65.679688 Z M 71.21875 61.519531 C 70.199219 61.960938 69.058594 62.941406 65.601562 66.300781 C 62.800781 69.058594 61.621094 70 61 70 C 60.441406 70 60.980469 69.179688 62.839844 67.28125 C 63.941406 66.140625 64.78125 65.199219 64.660156 65.199219 C 64.300781 65.199219 62.921875 66.21875 61.699219 67.398438 C 59.601562 69.421875 58 70.460938 58 69.78125 C 58 69.679688 58.921875 68.640625 60.039062 67.480469 C 61.140625 66.339844 61.941406 65.398438 61.761719 65.398438 C 61.601562 65.398438 61.300781 65.539062 61.078125 65.699219 C 60.558594 66.101562 60.421875 66.078125 60.539062 65.601562 C 60.621094 65.28125 60.539062 65.199219 60.121094 65.199219 C 58.820312 65.199219 56.339844 66.839844 55.378906 68.359375 C 54.160156 70.300781 55.039062 70.941406 56.941406 69.480469 C 57.71875 68.878906 57.878906 68.878906 57.578125 69.441406 C 57.398438 69.800781 57.421875 69.921875 57.699219 70.121094 C 58.101562 70.421875 58.460938 70.320312 59.300781 69.699219 C 60.28125 69 60.300781 69 60.300781 69.660156 C 60.300781 70.238281 60.359375 70.300781 60.859375 70.261719 C 61.160156 70.238281 61.859375 69.898438 62.398438 69.519531 C 63.339844 68.839844 63.378906 68.839844 63.160156 69.320312 C 62.980469 69.71875 62.980469 69.878906 63.21875 70.121094 C 63.601562 70.480469 64.320312 70.261719 65.378906 69.460938 C 66.039062 68.960938 66.058594 68.960938 65.960938 69.359375 C 65.898438 69.578125 65.960938 69.941406 66.078125 70.121094 C 66.320312 70.421875 66.398438 70.421875 67.21875 70.058594 C 68.160156 69.640625 70.261719 68 70.101562 67.839844 C 70.039062 67.78125 69.738281 67.960938 69.441406 68.238281 C 67.980469 69.601562 66.398438 70.398438 66.398438 69.78125 C 66.398438 69.660156 67.359375 68.578125 68.558594 67.359375 C 70.058594 65.800781 70.558594 65.199219 70.199219 65.300781 C 69.578125 65.480469 68.898438 66 67 67.78125 C 64.800781 69.839844 62.980469 70.699219 63.898438 69.261719 C 64.5 68.320312 70.238281 62.699219 71.398438 61.941406 C 72.519531 61.179688 72.441406 60.980469 71.21875 61.519531 Z M 60.398438 65.621094 C 60.398438 65.921875 58.140625 68.261719 56.941406 69.21875 C 55.140625 70.660156 54.839844 70.039062 56.460938 68.28125 C 58.140625 66.421875 60.398438 64.898438 60.398438 65.621094 Z M 60.398438 65.621094 " /><path style=" stroke:none;fill-rule:nonzero;fill:rgb(0%,0%,0%);fill-opacity:1;" d="M 65.339844 63.539062 C 65.058594 63.800781 65.21875 64.199219 65.601562 64.199219 C 65.859375 64.199219 66 64.058594 66 63.800781 C 66 63.421875 65.601562 63.261719 65.339844 63.539062 Z M 71 63.800781 C 71 64.058594 71.140625 64.199219 71.398438 64.199219 C 71.660156 64.199219 71.800781 64.058594 71.800781 63.800781 C 71.800781 63.539062 71.660156 63.398438 71.398438 63.398438 C 71.140625 63.398438 71 63.539062 71 63.800781 Z M 71 63.800781 " /></g></svg>